<svg xmlns="http://www.w3.org/2000/svg" viewBox="0 0 77 77" fill="none">
  <path d="M35.6691 26.6798L38.2169 30.7325L41.0478 26.6798L47.8419 67.8816L38.2169 77L29.1581 67.8816L35.6691 26.6798Z" fill="var(--nar-bg-playercard-line)"/>
  <path d="M49.5404 43.9035L44.4449 24.3158L52.0882 15.1974L77 16.2105C75.8676 17.674 72.9801 20.736 70.489 22.6272C67.9978 24.5184 64.5441 26.6798 61.4301 27.0175H54.9191L61.4301 38.1623L49.5404 43.9035Z" fill="var(--nar-bg-playercard-line)"/>
  <path d="M38.2169 21.9518L26.6103 6.07895L29.1581 0H47.8419L50.1066 6.07895L38.2169 21.9518Z" fill="var(--nar-bg-playercard-line)"/>
  <path d="M31.7059 24.3158L24.9118 16.2105H0C0.943627 17.1111 1.69853 19.9254 7.36029 23.3026C11.7424 25.9165 15.3811 27.1301 16.136 27.0175H21.7978L15.2868 38.1623L27.4596 43.9035L31.7059 24.3158Z" fill="var(--nar-bg-playercard-line)"/>
</svg>