<svg viewBox="0 0 22 22" fill="none" xmlns="http://www.w3.org/2000/svg">
<path d="M13.8947 13.9464L8.10526 13.9464L8.10526 8.05357L13.8947 8.05357L13.8947 13.9464Z" fill="#C1C2C5"/>
<path d="M19.5019 2.12964e-06L1.77899e-08 3.86499e-06L1.7227e-06 19.8501L4.24562 15.5287L4.24562 4.125L15.4492 4.125L19.5019 2.12964e-06Z" fill="#C1C2C5"/>
<path d="M6.85305 17.875L17.7544 17.875L17.7544 6.77899L22 2.45757L22 22L2.80042 22L6.85305 17.875Z" fill="#C1C2C5"/>
<path d="M19.5019 2.12964e-06L1.77899e-08 3.86499e-06L1.7227e-06 19.8501L4.24562 15.5287L4.24562 4.125L15.4492 4.125L19.5019 2.12964e-06Z" fill="url(#paint0_linear_763_2932)" fill-opacity="0.83"/>
<defs>
<linearGradient id="paint0_linear_763_2932" x1="23.6156" y1="28.2174" x2="-4.73259" y2="28.0048" gradientUnits="userSpaceOnUse">
<stop stop-color="var(--logo-gradient-start)"/>
<stop offset="0.372489" stop-color="var(--logo-gradient-mid)"/>
<stop offset="1" stop-color="var(--logo-gradient-end)"/>
</linearGradient>
</defs>
</svg>
