<svg width="24" height="24" viewBox="0 0 24 24" fill="none" xmlns="http://www.w3.org/2000/svg">
<path d="M15.5342 4.21582V5.38379H17.999V6.22656H20.5293V9.92383L17.999 20.043L16.1181 22.4434V23.3682L12.875 24V18.4219L12.0322 19.0703L11.124 18.4863V24L7.88086 23.4326V22.5078L5.99903 20.1084L3.46973 9.98926V6.29199H5.99903V5.44824H8.46387V4.28125L11.9668 0L15.5342 4.21582ZM15.5351 16.8652L16.5156 15.1787V8.74316H15.5351V16.8652ZM7.6211 15.2432L8.68457 16.7354V8.76758H7.6211V15.2432ZM10.4102 4.41113L12.0869 7.52441L13.6533 4.41113L11.9775 1.42676L10.4102 4.41113Z" fill="url(#paint0_linear_771_3361)"/>
<defs>
<linearGradient id="paint0_linear_771_3361" x1="2.21691" y1="-6.78261" x2="24.1998" y2="-6.66541" gradientUnits="userSpaceOnUse">
<stop stop-color="#FF6C11"/>
<stop offset="0.372489" stop-color="#D2019F"/>
<stop offset="1" stop-color="#4B0AB4"/>
</linearGradient>
</defs>
</svg>
