<svg viewBox="0 0 39 39" fill="none" xmlns="http://www.w3.org/2000/svg">
<path fill-rule="evenodd" clip-rule="evenodd" d="M3 9.33449V15.6689L5.57959 18.2282L8.15919 20.7875V20.8568L5.57959 23.4082L3 25.9597V28.3835L5.49038 25.9203L7.98077 23.457L8.705 22.7824L9.42924 22.1077L9.45168 22.0996L9.47412 22.0915L9.94403 22.5585L10.414 23.0257L6.70698 26.7038L3 30.3819V32.7964L7.3156 28.5146L11.6311 24.2328L12.1404 24.738L12.6496 25.2432L7.82479 30.0151L3 34.7869V35.9998H4.24915L9.05964 31.2271L13.8701 26.4542L14.3487 26.9291L14.8272 27.4039L10.5685 31.6295L6.30977 35.8551V35.9033H8.69488L11.1284 33.4861L13.5619 31.0689L14.4867 30.1968L15.4114 29.3247L15.7525 28.9922L16.0938 28.6597L16.5799 29.1428L17.0659 29.6259L13.878 32.7885L10.6902 35.9509V36H13.0749L15.679 33.4165L18.283 30.8329L20.887 33.4165L23.491 36H35.9997V23.1062L33.5174 20.6431L31.0352 18.18L33.5174 15.7173L35.9997 13.2545V10.8396L32.9088 13.9062L29.8179 16.9729L29.3337 16.4916L28.8495 16.0104L31.2485 13.6024L33.6474 11.1945L34.8237 10.0166L35.9999 8.83872V6.39675L31.7896 10.5742L27.5792 14.7516L27.101 14.2763L26.6228 13.801L31.3114 9.14914L36 4.4973V3.00011H35.0751L30.2407 7.79693L25.4062 12.5937L24.8947 12.0871L24.3833 11.5803L28.7072 7.29016L33.031 3H30.5976L26.8821 6.68649L23.1661 10.373L22.6901 9.8979L22.214 9.42281L23.09 8.50532L23.9661 7.58782L26.2514 5.318L28.5368 3.04818V3.00011H26.152L23.548 5.58365L20.944 8.16718L18.3399 5.58365L15.7357 3.00011H3V9.33449Z" fill="white"/>
</svg>
