<svg viewBox="0 0 22 22" fill="none" xmlns="http://www.w3.org/2000/svg">
<path d="M9.98985 1.53796V0H8.45916L8.4956 1.57456L9.98985 1.53796ZM12.1064 1.53796L13.6006 1.57456L13.6371 0H12.1064V1.53796ZM11.8874 11V12.5379H13.3469L13.3817 11.0366L11.8874 11ZM10.2088 11L8.71454 11.0366L8.74928 12.5379H10.2088V11ZM9.95337 20.462L8.4591 20.4254L8.42267 22H9.95337V20.462ZM10.1723 11V9.46203H8.71279L8.67805 10.9634L10.1723 11ZM11.8509 11L13.3452 10.9634L13.3104 9.46203H11.8509V11ZM12.0699 20.462V22H13.6006L13.5641 20.4254L12.0699 20.462ZM2.18068 7.09502L0.945735 6.22863L0 7.65587L1.48714 8.45739L2.18068 7.09502ZM3.27544 5.44292L4.03 4.11532L2.82612 3.3909L2.04048 4.57654L3.27544 5.44292ZM11.4495 10.3617L12.6875 11.2234L13.5818 9.86314L12.2041 9.03408L11.4495 10.3617ZM10.6102 11.6383L9.91667 13.0007L11.0999 13.6384L11.8482 12.5L10.6102 11.6383ZM19.8426 7.09502L20.5361 8.45739L22 7.6684L21.0905 6.24867L19.8426 7.09502ZM11.413 11.6383L10.1581 12.4738L10.8988 13.6516L12.1066 13.0007L11.413 11.6383ZM10.6102 10.3617L9.85565 9.03408L8.50584 9.84633L9.35531 11.1972L10.6102 10.3617ZM18.7843 5.44292L20.0322 4.59657L19.2526 3.37943L18.0298 4.11532L18.7843 5.44292ZM19.8426 14.905L21.0905 15.7513L21.9969 14.3364L20.5406 13.545L19.8426 14.905ZM18.7843 16.557L18.0298 17.8846L19.2526 18.6205L20.0322 17.4034L18.7843 16.557ZM10.6102 11.6383L9.34476 10.8198L8.52347 12.1642L9.85565 12.9659L10.6102 11.6383ZM11.413 10.3241L12.1111 8.96419L10.8853 8.29807L10.1476 9.50568L11.413 10.3241ZM2.18068 14.9425L1.48266 13.5826L0.0032224 14.3865L0.945735 15.809L2.18068 14.9425ZM10.6102 10.3617L11.8593 9.51707L11.1133 8.34899L9.91219 9.00173L10.6102 10.3617ZM11.4495 11.6759L12.2041 13.0034L13.5635 12.1854L12.6986 10.8312L11.4495 11.6759ZM3.27544 16.5945L2.04048 17.461L2.82612 18.6466L4.03 17.9223L3.27544 16.5945ZM9.98985 1.53796V3.07591H12.1064V1.53796V0H9.98985V1.53796ZM12.1064 1.53796L10.6121 1.50135L10.3932 10.9634L11.8874 11L13.3817 11.0366L13.6006 1.57456L12.1064 1.53796ZM11.8874 11V9.46203H10.2088V11V12.5379H11.8874V11ZM10.2088 11L11.7031 10.9634L11.4841 1.50135L9.98985 1.53796L8.4956 1.57456L8.71454 11.0366L10.2088 11ZM9.95337 20.462L11.4476 20.4986L11.6666 11.0366L10.1723 11L8.67805 10.9634L8.4591 20.4254L9.95337 20.462ZM10.1723 11V12.5379H11.8509V11V9.46203H10.1723V11ZM11.8509 11L10.3566 11.0366L10.5756 20.4986L12.0699 20.462L13.5641 20.4254L13.3452 10.9634L11.8509 11ZM12.0699 20.462V18.9241H9.95337V20.462V22H12.0699V20.462ZM2.18068 7.09502L3.41564 7.96141L4.51038 6.30931L3.27544 5.44292L2.04048 4.57654L0.945735 6.22863L2.18068 7.09502ZM3.27544 5.44292L2.52087 6.77051L10.695 11.6893L11.4495 10.3617L12.2041 9.03408L4.03 4.11532L3.27544 5.44292ZM11.4495 10.3617L10.2115 9.49996L9.37219 10.7766L10.6102 11.6383L11.8482 12.5L12.6875 11.2234L11.4495 10.3617ZM10.6102 11.6383L11.3038 10.2759L2.87423 5.73265L2.18068 7.09502L1.48714 8.45739L9.91667 13.0007L10.6102 11.6383ZM19.8426 7.09502L19.149 5.73265L10.7195 10.2759L11.413 11.6383L12.1066 13.0007L20.5361 8.45739L19.8426 7.09502ZM11.413 11.6383L12.6679 10.8028L11.8651 9.52618L10.6102 10.3617L9.35531 11.1972L10.1581 12.4738L11.413 11.6383ZM10.6102 10.3617L11.3648 11.6893L19.5388 6.77051L18.7843 5.44292L18.0298 4.11532L9.85565 9.03408L10.6102 10.3617ZM18.7843 5.44292L17.5363 6.28929L18.5945 7.94139L19.8426 7.09502L21.0905 6.24867L20.0322 4.59657L18.7843 5.44292ZM19.8426 14.905L18.5945 14.0586L17.5363 15.7107L18.7843 16.557L20.0322 17.4034L21.0905 15.7513L19.8426 14.905ZM18.7843 16.557L19.5388 15.2295L11.3648 10.3107L10.6102 11.6383L9.85565 12.9659L18.0298 17.8846L18.7843 16.557ZM10.6102 11.6383L11.8757 12.4568L12.6785 11.1426L11.413 10.3241L10.1476 9.50568L9.34476 10.8198L10.6102 11.6383ZM11.413 10.3241L10.715 11.6841L19.1445 16.265L19.8426 14.905L20.5406 13.545L12.1111 8.96419L11.413 10.3241ZM2.18068 14.9425L2.87872 16.3025L11.3082 11.7216L10.6102 10.3617L9.91219 9.00173L1.48266 13.5826L2.18068 14.9425ZM10.6102 10.3617L9.3611 11.2063L10.2004 12.5205L11.4495 11.6759L12.6986 10.8312L11.8593 9.51707L10.6102 10.3617ZM11.4495 11.6759L10.695 10.3483L2.52087 15.267L3.27544 16.5945L4.03 17.9223L12.2041 13.0034L11.4495 11.6759ZM3.27544 16.5945L4.51038 15.7282L3.41564 14.0761L2.18068 14.9425L0.945735 15.809L2.04048 17.461L3.27544 16.5945Z" fill="var(--nar-text-tertiary-sub)"/>
</svg>
