<svg width="20" height="20" viewBox="0 0 20 20" fill="none" xmlns="http://www.w3.org/2000/svg">
<path d="M10 0C15.5228 0 20 4.47715 20 10C20 15.5228 15.5228 20 10 20C4.47715 20 0 15.5228 0 10C0 4.47715 4.47715 0 10 0ZM9.79785 4.7998C8.62332 4.7998 7.60134 5.02769 6.73242 5.4834C5.8636 5.93407 5.18934 6.57506 4.70996 7.40625C4.23658 8.23249 4.00003 9.20927 4 10.3359V10.3438C4.00001 11.205 4.13469 11.9837 4.4043 12.6797C4.67995 13.3758 5.07267 13.972 5.58203 14.4678C6.09138 14.9635 6.70015 15.344 7.40723 15.6094C8.12023 15.8697 8.91713 16 9.79785 16C10.6308 16 11.3798 15.8921 12.0449 15.6768C12.716 15.4564 13.2855 15.1439 13.7529 14.7383C14.2263 14.3276 14.5854 13.8337 14.8311 13.2578C15.0767 12.682 15.2002 12.0335 15.2002 11.3125V10.3809H9.9502V11.2822H13.9775V11.5234C13.9775 12.2244 13.8035 12.8404 13.4561 13.3711C13.1085 13.9018 12.6203 14.3149 11.9912 14.6104C11.368 14.9058 10.6368 15.0537 9.79785 15.0537C9.10273 15.0537 8.47345 14.9458 7.91016 14.7305C7.35285 14.5101 6.87318 14.1948 6.47168 13.7842C6.07632 13.3737 5.77418 12.8803 5.56445 12.3047C5.35472 11.7238 5.24903 11.0698 5.24902 10.3438V10.3359C5.24905 9.38966 5.43242 8.57366 5.79785 7.8877C6.16939 7.20162 6.69394 6.67331 7.37109 6.30273C8.05422 5.93218 8.86305 5.74609 9.79785 5.74609C10.7926 5.74611 11.6379 5.95448 12.333 6.37012C13.0278 6.7857 13.5218 7.39158 13.8154 8.1875L13.8516 8.2627H15.1104L15.083 8.1582C14.8912 7.48215 14.5556 6.89336 14.0762 6.39258C13.6029 5.88692 13.007 5.49611 12.2881 5.2207C11.569 4.94027 10.7386 4.79981 9.79785 4.7998Z" fill="var(--nar-icon-GNB-default)"/>
</svg>
