<svg width="25" height="30" viewBox="0 0 25 30" fill="none" xmlns="http://www.w3.org/2000/svg">
<path d="M18.7334 21.4189L20.2227 19.9307L21.9141 21.6221L20.7959 22.7402L24.0088 25.9531C24.3988 26.3434 24.3985 26.9767 24.0088 27.3672L22.584 28.792C22.1935 29.1824 21.5605 29.1822 21.1699 28.792L17.957 25.5791L16.8398 26.6963L15.1494 25.0049L16.7139 23.4395C16.2752 23.1602 14.697 22.136 12.6738 20.6104C13.6166 19.8178 14.634 18.9204 15.6631 17.9473L18.7334 21.4189ZM22.2393 25.4844L21.542 28.3359C21.5504 28.3341 21.6855 28.3024 21.9141 28.0635C22.629 27.3149 22.5353 25.4965 22.5342 25.4746L22.2393 25.4844ZM23.8906 0C23.8949 0.00589725 24.6407 1.04159 24.29 3.98633C23.2755 12.5036 9.1451 21.7036 7.67186 22.6416L9.23631 24.207L7.54588 25.8975L6.42869 24.7793L3.21482 27.9932C2.82427 28.3831 2.19112 28.3834 1.80076 27.9932L0.375962 26.5684C-0.0138358 26.178 -0.0138796 25.5447 0.375962 25.1543L3.58982 21.9404L2.47166 20.8242L4.16307 19.1328L5.65135 20.6201L23.8906 0ZM1.85057 24.6777C1.84887 24.7101 1.7577 26.5203 2.47068 27.2666C2.69962 27.5059 2.83478 27.5374 2.84275 27.5391L2.14549 24.6875L1.85057 24.6777ZM21.3643 24.6113L20.667 27.4619C20.6754 27.4602 20.8113 27.4287 21.04 27.1895C21.7555 26.44 21.6602 24.6189 21.6592 24.6006L21.3643 24.6113ZM2.72459 23.8037C2.72315 23.8308 2.62983 25.6451 3.34373 26.3926C3.57288 26.6322 3.70878 26.6634 3.71678 26.665L3.01951 23.8145L2.72459 23.8037ZM20.4922 23.7383L19.7949 26.5889C19.806 26.5865 19.9407 26.5531 20.167 26.3164C20.8825 25.567 20.7881 23.7459 20.7871 23.7275L20.4922 23.7383ZM3.59959 22.9287C3.59816 22.9558 3.50583 24.7701 4.21971 25.5176C4.44578 25.754 4.58059 25.7876 4.59178 25.79L3.89451 22.9395L3.59959 22.9287ZM11.3447 13.0654L8.01464 16.7529C4.24695 13.3021 0.591389 8.96139 0.0937348 4.7832C-0.257923 1.83017 0.493149 0.796875 0.493149 0.796875L11.3447 13.0654Z" fill="#101113"/>
</svg>
