<svg width="24" height="24" viewBox="0 0 24 24" fill="none" xmlns="http://www.w3.org/2000/svg">
<path d="M0.0273438 20.9602C0.0339726 20.9483 2.22272 17.0321 4.07707 17.7931C5.93407 18.5553 5.82634 20.4659 5.82634 20.4659L0.0273438 20.9602ZM19.9235 17.7931C21.7743 17.0336 23.9578 20.9333 23.9728 20.9602L18.1738 20.4659C18.1738 20.4659 18.0663 18.5553 19.9235 17.7931ZM17.7069 3.04102C19.6186 3.04102 21.1684 5.79649 21.1684 7.92673C21.1684 8.75375 20.9337 9.36375 20.536 9.80207L20.7069 9.98387L20.9377 15.641L16.3223 20.0124L13.3223 20.7839H10.5531L7.55305 20.0124L2.93765 15.641L3.16842 9.98387L3.33879 9.80207C2.94125 9.3638 2.70688 8.7536 2.70688 7.92673C2.70688 5.79649 4.25667 3.04102 6.16844 3.04102C7.15941 3.04102 8.05244 3.50572 8.68345 4.24939L11.9377 3.04102L15.1914 4.24939C15.8224 3.50557 16.7158 3.04102 17.7069 3.04102ZM11.765 7.66959C11.7381 7.68676 8.94164 9.47319 8.33817 11.4881C8.12365 12.2047 10.0501 12.9206 9.83776 13.159C8.98036 14.1143 8.55136 14.3532 7.48045 15.7861C6.83813 16.646 8.25842 17.3277 9.83776 18.6499C10.6933 19.366 10.6936 17.4584 11.7637 16.9794L11.765 16.98C12.8085 17.4454 12.8087 19.0665 13.6423 18.3686C15.1804 17.081 16.5635 16.4166 15.9378 15.5792C14.895 14.1838 14.4772 13.9516 13.6423 13.0213C13.4341 12.7895 15.3114 12.0922 15.1026 11.3941C14.5861 9.66903 12.4187 8.11562 11.8845 7.75396L11.765 7.67511V7.66959Z" fill="url(#paint0_linear_771_2923)"/>
<defs>
<linearGradient id="paint0_linear_771_2923" x1="-1.73115" y1="-2.02309" x2="29.1225" y2="-1.71387" gradientUnits="userSpaceOnUse">
<stop stop-color="#FF6C11"/>
<stop offset="0.372489" stop-color="#D2019F"/>
<stop offset="1" stop-color="#4B0AB4"/>
</linearGradient>
</defs>
</svg>
