<svg viewBox="0 0 37 31" fill="none" xmlns="http://www.w3.org/2000/svg">
<path d="M17.1397 10.7412L18.364 12.3728L19.7243 10.7412L22.989 27.3289L18.364 31L14.011 27.3289L17.1397 10.7412Z" fill="#909296"/>
<path d="M23.8051 17.6754L21.3566 9.78947L25.0294 6.11842L37 6.52632C36.4559 7.1155 35.0684 8.34825 33.8713 9.10965C32.6743 9.87105 31.0147 10.7412 29.5184 10.8772H26.3897L29.5184 15.364L23.8051 17.6754Z" fill="#909296"/>
<path d="M18.364 8.83772L12.7868 2.44737L14.011 0H22.989L24.0772 2.44737L18.364 8.83772Z" fill="#909296"/>
<path d="M15.2353 9.78947L11.9706 6.52632H0C0.453431 6.88889 0.816176 8.02193 3.53676 9.38158C5.64244 10.4339 7.39093 10.9225 7.75368 10.8772H10.4743L7.34559 15.364L13.1949 17.6754L15.2353 9.78947Z" fill="#909296"/>
</svg>
