<svg viewBox="0 0 34 33" fill="none" xmlns="http://www.w3.org/2000/svg">
<path d="M21.4737 20.9196L12.5263 20.9196L12.5263 12.0804L21.4737 12.0804L21.4737 20.9196Z" fill="#E9ECEF"/>
<path d="M30.1393 4.14814e-06L8.9447e-07 6.75117e-06L3.52933e-06 29.7752L6.56141 23.293L6.5614 6.1875L23.8761 6.1875L30.1393 4.14814e-06Z" fill="white" fill-opacity="0.15"/>
<path d="M10.5911 26.8125L27.4386 26.8125L27.4386 18.4905L27.4386 10.1685L34 3.68635L34 33L4.32792 33L10.5911 26.8125Z" fill="#E9ECEF"/>
<path d="M30.1393 4.14814e-06L8.9447e-07 6.75117e-06L3.52933e-06 29.7752L6.56141 23.293L6.5614 6.1875L23.8761 6.1875L30.1393 4.14814e-06Z" fill="#909296"/>
</svg>
