<svg viewBox="0 0 39 17" fill="none" xmlns="http://www.w3.org/2000/svg">
<path d="M39 2.26233V10.6528C38.9938 10.6757 38.9852 10.6982 38.9819 10.7215C38.8676 11.5216 38.1849 12.1459 37.3937 12.1779C37.0129 12.1933 36.6325 12.2162 36.2519 12.2359C34.9003 12.3061 33.5486 12.3769 32.1969 12.4464C30.9171 12.5123 29.6372 12.5773 28.3573 12.6417C27.4191 12.6889 26.4812 12.7395 25.5428 12.7797C24.7303 12.8145 23.9174 12.8415 23.1045 12.8638C22.3245 12.8852 21.5443 12.8968 20.7642 12.9111C20.6131 12.9139 20.5256 12.8144 20.5452 12.6668C20.5994 12.2576 20.6547 11.8485 20.7106 11.4395C20.7319 11.2843 20.7987 11.2184 20.9529 11.2086C21.9744 11.1436 22.992 11.0395 24.0051 10.8907C24.2868 10.8494 24.5735 10.8206 24.8463 10.7436C25.5337 10.5495 25.9801 9.96536 25.9807 9.28791C25.9826 7.40013 25.9821 5.51235 25.9791 3.62457C25.9789 3.49162 25.966 3.35257 25.9268 3.22685C25.7291 2.59245 25.2802 2.2265 24.6556 2.12134C23.9044 1.99491 23.1458 1.91174 22.3888 1.82471C21.9121 1.76984 21.4322 1.74307 20.9539 1.70184C20.7927 1.68799 20.7322 1.62692 20.7098 1.46302C20.6547 1.05699 20.6 0.650887 20.5458 0.244725C20.526 0.0966114 20.6061 0.000922801 20.7526 0.00326412C21.5898 0.0169048 22.4274 0.0196533 23.2639 0.0493779C24.7934 0.103635 26.3226 0.169498 27.8516 0.239024C29.1347 0.297456 30.4175 0.367288 31.7002 0.433557C32.8032 0.490563 33.9059 0.549707 35.0087 0.607527C35.8148 0.649875 36.6212 0.686928 37.4271 0.734976C38.1275 0.776713 38.7153 1.2522 38.9233 1.93383C38.9559 2.04102 38.9747 2.15269 39 2.26233ZM9.89261 0.289007C11.6407 0.214186 13.3887 0.131324 15.1372 0.0677012C16.1658 0.0302402 17.1955 0.0259647 18.2247 0.000108429C18.3964 -0.00416702 18.4713 0.118599 18.4508 0.261521C18.3927 0.66718 18.3404 1.07365 18.2846 1.47951C18.2648 1.62386 18.199 1.68789 18.0533 1.70031C17.6347 1.73594 17.2146 1.75711 16.7975 1.80547C15.9808 1.90004 15.1629 1.98941 14.3511 2.11869C13.74 2.21601 13.2947 2.56945 13.0824 3.18074C13.0392 3.30805 13.0171 3.44166 13.017 3.57621C13.013 5.50078 13.0094 7.42544 13.0179 9.35C13.0202 9.86764 13.288 10.2516 13.6989 10.5361C13.9718 10.7252 14.2833 10.7975 14.6056 10.8375C15.2457 10.9166 15.8847 11.0071 16.5255 11.079C16.9877 11.1308 17.4522 11.1603 17.9157 11.1995C17.9695 11.2041 18.0237 11.205 18.0772 11.2117C18.1933 11.226 18.265 11.2917 18.2814 11.4095C18.3398 11.8275 18.3971 12.2456 18.4506 12.6642C18.4707 12.8218 18.3844 12.9147 18.2259 12.9109C17.0377 12.8832 15.8494 12.8602 14.6615 12.8231C13.7257 12.7938 12.7901 12.7515 11.8549 12.7057C10.2541 12.6274 8.65371 12.5416 7.05299 12.4594C5.90199 12.4002 4.75099 12.3421 3.59998 12.2828C2.91961 12.2476 2.23862 12.2222 1.55926 12.1727C0.555968 12.0996 -0.0039744 11.2241 0.000168081 10.4749C0.0116862 8.4034 0.00410849 6.33194 0.00410849 4.26039C0.00410849 3.66071 0.0183546 3.06051 0.000673264 2.46134C-0.0238785 1.63048 0.625278 0.784449 1.58492 0.732737C2.37007 0.69039 3.15532 0.650485 3.94058 0.609258C4.8307 0.562533 5.72073 0.514689 6.61086 0.468677C7.70488 0.41218 8.7991 0.35721 9.89312 0.301629C9.8929 0.297424 9.89273 0.293216 9.89261 0.289007ZM20.4331 16.6892C20.4331 16.7111 20.4398 16.7237 20.4521 16.7237C20.4619 16.7223 20.4712 16.7183 20.479 16.7122L23.9698 14.3832C24.0285 14.341 24.0992 14.3191 24.1713 14.321H24.9385C25.0561 14.321 25.1356 14.4016 25.1356 14.5225V16.0284C25.1356 16.2103 25.0964 16.3161 24.9396 16.4128L24.009 16.9885C23.9997 16.9951 23.9889 16.9991 23.9777 17C23.9664 17 23.9552 16.9907 23.9552 16.9573V15.2006C23.9552 15.1799 23.9497 15.1661 23.9362 15.1661C23.9264 15.1673 23.917 15.1713 23.9094 15.1776L21.3582 16.8815C21.3007 16.9219 21.2322 16.9432 21.1622 16.9425H19.4711C19.3524 16.9425 19.274 16.8619 19.274 16.7399V14.5697C19.274 14.5536 19.2673 14.5387 19.2538 14.5387C19.244 14.54 19.2347 14.544 19.2269 14.5502L17.5437 15.5886C17.5269 15.6001 17.5225 15.6081 17.5225 15.6162C17.5225 15.6231 17.5258 15.63 17.537 15.6426L18.7398 16.8779C18.7555 16.894 18.7667 16.9068 18.7667 16.9205C18.7667 16.932 18.7488 16.9413 18.7275 16.9413H17.6412C17.5561 16.9413 17.49 16.9286 17.444 16.8814L16.715 16.1331C16.7122 16.1297 16.7088 16.127 16.705 16.125C16.7012 16.123 16.697 16.1219 16.6926 16.1216C16.6847 16.122 16.677 16.1244 16.6702 16.1285L15.4518 16.8815C15.3779 16.9275 15.3275 16.9402 15.2547 16.9402H14.1337C14.0139 16.9414 13.9355 16.8596 13.9355 16.7388V15.2617C13.9355 15.0787 13.9747 14.9738 14.1326 14.8771L15.0689 14.2992C15.0762 14.2943 15.0847 14.2915 15.0935 14.2912C15.1081 14.2912 15.116 14.3062 15.116 14.3396V16.3175C15.116 16.3382 15.1204 16.3474 15.135 16.3474C15.1451 16.3458 15.1546 16.3418 15.163 16.3359L18.3256 14.3799C18.3866 14.3374 18.4598 14.3163 18.5339 14.32H20.2362C20.3538 14.32 20.4333 14.4006 20.4333 14.5215L20.4322 16.6893H20.4331V16.6892Z" fill="white"/>
</svg>
