<svg width="29" height="33" viewBox="0 0 29 33" fill="none" xmlns="http://www.w3.org/2000/svg">
<path d="M16.7758 15.84C17.4 17.1072 17.7294 18.832 17.8161 19.536L19.2466 16.104C19.1599 15.84 19.0386 14.784 19.2466 12.672C19.4547 10.56 22.0209 3.52 23.278 0.264C22.1943 1.76 19.7668 5.148 18.7265 6.732C17.6861 8.316 15.9522 11.616 15.2152 13.068C15.4753 13.464 16.1516 14.5728 16.7758 15.84Z" fill="#909296"/>
<path d="M21.0673 25.74C20.339 26.3736 19.3767 27.5 18.9865 27.984L18.8565 24.156C18.9865 23.628 19.3247 22.308 19.6368 21.252C19.9489 20.196 20.8072 17.952 22.4978 14.916C22.9312 14.256 24.1623 12.5928 25.0987 11.748C26.035 10.9032 27.5695 9.9 29 9.108C27.0493 11.352 27.3094 11.088 25.4888 14.388C24.0068 17.0742 23.7549 21.296 23.7982 23.76C23.1913 24.156 21.7955 25.1064 21.0673 25.74Z" fill="#909296"/>
<path d="M15.8655 23.496C15.8655 28.5648 14.9985 31.944 14.565 33C11.2359 27.9312 6.93573 24.552 5.20179 23.496C5.07175 21.912 4.68161 18.2424 4.16144 16.236C3.64126 14.2296 1.1704 10.648 0 9.108C1.1704 9.636 4.00538 11.1408 5.98206 12.936C7.95875 14.7312 9.31988 17.556 9.75336 18.744C9.75336 17.512 9.67534 14.3616 9.36323 11.616C9.05112 8.8704 6.71898 2.728 5.59193 0C6.58894 1.54 8.58296 3.96 10.1435 6.732C11.2173 8.63946 15.8655 17.16 15.8655 23.496Z" fill="#909296"/>
</svg>
