<svg xmlns="http://www.w3.org/2000/svg" viewBox="0 0 77 77" fill="none">
  <path d="M48.6316 48.8125L28.3684 48.8125L28.3684 28.1875L48.6316 28.1875L48.6316 48.8125Z" fill="var(--nar-bg-playercard-line2)"/>
  <path d="M68.2566 7.45374e-06L1.7312e-06 1.35275e-05L7.69837e-06 69.4754L14.8597 54.3504L14.8597 14.4375L54.0724 14.4375L68.2566 7.45374e-06Z" fill="var(--nar-bg-playercard-line2)"/>
  <path d="M23.9857 62.5625L62.1404 62.5625L62.1403 43.1445L62.1403 23.7265L77 8.60148L77 77L9.80145 77L23.9857 62.5625Z" fill="var(--nar-bg-playercard-line2)"/>
  <path d="M68.2566 7.45374e-06L1.7312e-06 1.35275e-05L7.69837e-06 69.4754L14.8597 54.3504L14.8597 14.4375L54.0724 14.4375L68.2566 7.45374e-06Z" fill="var(--nar-bg-playercard-line)"/>
</svg>