<svg width="24" height="24" viewBox="0 0 24 24" fill="none" xmlns="http://www.w3.org/2000/svg">
<path d="M21.4535 15.2094C21.477 15.2155 23.9202 15.8538 23.9993 19.0918C24.0785 22.3405 17.7014 23.995 17.6821 24L21.4535 15.2094ZM6.57992 23.8864C6.55973 23.8817 -0.0785952 22.3405 0.000704856 19.0918C0.080135 15.8382 2.80946 15.0958 2.80946 15.0958L6.57992 23.8864ZM7.11373 6.21594L11.1133 4.88395H13.3353L17.1483 6.32954L22.9255 9.43748V12.9894L20.2591 13.8774C20.2466 13.9174 19.1795 17.2947 17.5927 18.7614C16.3956 19.8678 13.8497 20.7495 12.6514 21.121L12.0021 21.3118C12.0021 21.3118 8.26555 20.1232 6.66933 18.6478C5.08123 17.1799 4.01367 13.798 4.00292 13.7639L1.33651 12.8759V9.32391L3.11412 3.55196L7.55813 0L7.11373 6.21594ZM12.0021 11.5439C12.6863 12.2543 12.8909 13.7227 12.8909 15.0958C12.8909 16.469 12.7392 18.2926 12.0021 18.6478C11.2122 18.2926 11.1133 16.5644 11.1133 15.1912C11.1133 13.818 11.3179 12.2543 12.0021 11.5439C10.0387 11.5439 8.44693 13.1342 8.44693 15.0958C8.44693 17.0575 10.0387 18.6478 12.0021 18.6478C13.9656 18.6477 15.5573 17.0575 15.5573 15.0958C15.5573 13.1955 14.0636 11.6435 12.1853 11.5482L12.0021 11.5439ZM21.1488 3.66556L22.9255 9.43748L17.1483 6.32954L16.7048 0.113601L21.1488 3.66556Z" fill="url(#paint0_linear_771_2899)"/>
<defs>
<linearGradient id="paint0_linear_771_2899" x1="-1.7625" y1="-6.78261" x2="29.1628" y2="-6.55067" gradientUnits="userSpaceOnUse">
<stop stop-color="var(--logo-gradient-start)"/>
<stop offset="0.372489" stop-color="var(--logo-gradient-mid)"/>
<stop offset="1" stop-color="var(--logo-gradient-end)"/>
</linearGradient>
</defs>
</svg>
