<svg width="26" height="20" viewBox="0 0 26 20" fill="none" xmlns="http://www.w3.org/2000/svg">
<path d="M12.7549 7.38184L13.7607 6.37793L16.2773 17.335L12.8027 19.9404V19.9727L12.7812 19.9561L12.7236 20V19.9131L9.25 17.3076L11.7666 6.35059L12.7549 7.38184ZM11.252 5.9502L9.91992 11.7246L5.18164 9.7998L6.81055 7.28223C6.80062 7.28339 4.43649 7.55993 3.10938 6.83887C1.77952 6.11609 0 3.58105 0 3.58105H9.03125L11.252 5.9502ZM25.1709 3.58105C25.1709 3.58105 23.3914 6.11609 22.0615 6.83887C20.7349 7.55968 18.372 7.28359 18.3604 7.28223L19.9893 9.7998L15.8154 11.5137L14.3232 5.96875L16.4121 3.58105H25.1709ZM12.6807 0H15.6426L16.8271 1.9248L15.4951 3.40527L12.6816 6.51465L9.71973 3.25781L8.53516 1.9248L9.71973 0H12.6807Z" fill="var(--nar-icon-GNB-default)"/>
</svg>
