<svg xmlns="http://www.w3.org/2000/svg" viewBox="0 0 77 77" fill="none">
  <path d="M44.5426 36.96C46.2 39.9168 47.0747 43.9413 47.3049 45.584L51.1031 37.576C50.8729 36.96 50.5507 34.496 51.1031 29.568C51.6556 24.64 58.4694 8.21333 61.8072 0.616C58.9297 4.10667 52.4843 12.012 49.722 15.708C46.9596 19.404 42.3558 27.104 40.3991 30.492C41.0897 31.416 42.8852 34.0032 44.5426 36.96Z" fill="var(--nar-bg-playercard-line)"/>
  <path d="M55.9372 60.06C54.0036 61.5384 51.4484 64.1667 50.4126 65.296L50.0673 56.364C50.4126 55.132 51.3103 52.052 52.139 49.588C52.9677 47.124 55.2466 41.888 59.7354 34.804C60.8864 33.264 64.1552 29.3832 66.6413 27.412C69.1273 25.4408 73.2018 23.1 77 21.252C71.8206 26.488 72.5112 25.872 67.6771 33.572C63.7422 39.8398 63.0732 49.6907 63.1883 55.44C61.577 56.364 57.8708 58.5816 55.9372 60.06Z" fill="var(--nar-bg-playercard-line)"/>
  <path d="M42.1256 54.824C42.1256 66.6512 39.8236 74.536 38.6726 77C29.8332 65.1728 18.4155 57.288 13.8117 54.824C13.4664 51.128 12.4305 42.5656 11.0493 37.884C9.66816 33.2024 3.10762 24.8453 0 21.252C3.10762 22.484 10.635 25.9952 15.8834 30.184C21.1318 34.3728 24.7459 40.964 25.8969 43.736C25.8969 40.8613 25.6897 33.5104 24.861 27.104C24.0323 20.6976 17.8401 6.36533 14.8475 0C17.4948 3.59333 22.7892 9.24 26.9327 15.708C29.7839 20.1587 42.1256 40.04 42.1256 54.824Z" fill="var(--nar-bg-playercard-line)"/>
</svg>