<svg xmlns="http://www.w3.org/2000/svg" width="114" height="112" viewBox="0 0 114 112" fill="none">
  <path d="M72 71L42 71L42 41L72 41L72 71Z" fill="#C1C2C5"/>
  <path d="M101.055 1.13167e-06L-9.79135e-06 9.9662e-06L-9.56827e-07 101.055L22 79.0552L22 21L80.0552 21L101.055 1.13167e-06Z" fill="#C1C2C5"/>
  <path d="M35.5112 91L92 91L92 34.5112L114 12.5112L114 112L14.5112 112L35.5112 91Z" fill="#C1C2C5"/>
  <path d="M101.055 1.13167e-06L-9.79135e-06 9.9662e-06L-9.56827e-07 101.055L22 79.0552L22 21L80.0552 21L101.055 1.13167e-06Z" fill="url(#paint0_linear_460_2663)" fill-opacity="0.83"/>
  <defs>
    <linearGradient id="paint0_linear_460_2663" x1="122.372" y1="143.652" x2="-24.5231" y2="142.531" gradientUnits="userSpaceOnUse">
      <stop stop-color="#E26212"/>
      <stop offset="0.372489" stop-color="#950371"/>
      <stop offset="1" stop-color="#250657"/>
    </linearGradient>
  </defs>
</svg>