<svg width="193" height="302" viewBox="0 0 193 302" fill="none" xmlns="http://www.w3.org/2000/svg">
<path d="M81.64 15.592L81.776 17.688C81.7813 17.8107 81.7947 17.8907 81.816 17.928C81.8373 17.9653 81.8853 18.0053 81.96 18.048L82.376 18.328L82.344 19H80.264L80.224 18.128L80.656 18.024L80.688 14.872C80.688 14.7707 80.68 14.7013 80.664 14.664C80.648 14.6267 80.6107 14.584 80.552 14.536L80.256 14.312L80.312 13.608H81.968L84.384 16.704L84.272 14.92C84.2667 14.792 84.2533 14.7093 84.232 14.672C84.2107 14.6347 84.1627 14.5947 84.088 14.552L83.672 14.28L83.696 13.608H85.76L85.792 14.424L85.384 14.6L85.352 18.928L84.432 19.232L81.64 15.592ZM85.8311 18.288L86.0791 18.136L87.9511 13.6L89.3111 13.48L90.9111 17.8C90.9645 17.9387 91.0018 18.0293 91.0231 18.072C91.0445 18.1147 91.0845 18.1733 91.1431 18.248L91.2871 18.432L91.2391 19H88.9911L88.9111 18.24L89.4791 18.096L89.2231 17.288L87.5991 17.312L87.4231 17.816C87.4071 17.864 87.3991 17.904 87.3991 17.936C87.3991 17.9733 87.4045 18.0027 87.4151 18.024C87.4311 18.04 87.4551 18.0533 87.4871 18.064L88.0391 18.296L87.9591 19H85.8631L85.8311 18.288ZM88.4471 14.848L87.9191 16.384L88.9511 16.432L88.4471 14.848ZM91.6163 18.184L92.2003 18.024V14.976C92.2003 14.8373 92.1896 14.7467 92.1683 14.704C92.147 14.656 92.091 14.6133 92.0003 14.576L91.5843 14.344L91.6323 13.688C92.4323 13.5707 93.203 13.512 93.9443 13.512C94.5203 13.512 94.9843 13.5707 95.3363 13.688C95.6883 13.8 95.9443 13.9787 96.1043 14.224C96.2696 14.464 96.3523 14.784 96.3523 15.184C96.3523 15.5147 96.267 15.8053 96.0963 16.056C95.9256 16.3013 95.683 16.4907 95.3683 16.624L96.6483 18.688L96.6403 19H95.1843L94.0003 16.864L93.6483 16.856V17.752C93.6483 17.88 93.6563 17.9627 93.6723 18C93.6936 18.032 93.7416 18.0693 93.8163 18.112L94.1603 18.312L94.1283 19H91.6563L91.6163 18.184ZM94.1603 15.96C94.443 15.96 94.651 15.9333 94.7843 15.88C94.8376 15.688 94.8643 15.4587 94.8643 15.192C94.8643 14.9253 94.8056 14.736 94.6883 14.624C94.5763 14.512 94.387 14.456 94.1203 14.456C93.971 14.456 93.819 14.464 93.6643 14.48V15.912C93.803 15.944 93.9683 15.96 94.1603 15.96ZM97.3931 18.064L98.6891 17.72L99.0171 18.912L97.7291 19.256L97.3931 18.064ZM102.178 19.096C101.276 19.096 100.599 18.8587 100.146 18.384C99.6923 17.9093 99.4656 17.2053 99.4656 16.272C99.4656 15.7013 99.575 15.2107 99.7936 14.8C100.012 14.384 100.33 14.0667 100.746 13.848C101.162 13.6293 101.655 13.52 102.226 13.52C102.919 13.52 103.594 13.6587 104.25 13.936C104.196 14.448 104.122 14.96 104.026 15.472L103.418 15.512L102.914 14.776C102.647 14.68 102.316 14.632 101.922 14.632C101.735 14.632 101.511 14.6507 101.25 14.688C101.154 14.848 101.079 15.0613 101.026 15.328C100.972 15.5947 100.946 15.8827 100.946 16.192C100.946 16.8053 101.068 17.264 101.314 17.568C101.559 17.8667 101.94 18.0187 102.458 18.024C102.586 18.024 102.748 18.0133 102.946 17.992V17.408C102.946 17.3013 102.938 17.232 102.922 17.2C102.906 17.168 102.86 17.1307 102.786 17.088L102.482 16.936L102.514 16.392L102.698 16.36C102.756 16.3493 102.964 16.3173 103.322 16.264C103.679 16.2053 103.978 16.1707 104.218 16.16C104.271 16.2613 104.311 16.376 104.338 16.504V18.6C104.028 18.7547 103.684 18.8773 103.306 18.968C102.927 19.0533 102.551 19.096 102.178 19.096ZM107.678 19.096C106.776 19.096 106.099 18.8587 105.646 18.384C105.192 17.9093 104.966 17.2053 104.966 16.272C104.966 15.7013 105.075 15.2107 105.294 14.8C105.512 14.384 105.83 14.0667 106.246 13.848C106.662 13.6293 107.155 13.52 107.726 13.52C108.419 13.52 109.094 13.6587 109.75 13.936C109.696 14.448 109.622 14.96 109.526 15.472L108.918 15.512L108.414 14.776C108.147 14.68 107.816 14.632 107.422 14.632C107.235 14.632 107.011 14.6507 106.75 14.688C106.654 14.848 106.579 15.0613 106.526 15.328C106.472 15.5947 106.446 15.8827 106.446 16.192C106.446 16.8053 106.568 17.264 106.814 17.568C107.059 17.8667 107.44 18.0187 107.958 18.024C108.086 18.024 108.248 18.0133 108.446 17.992V17.408C108.446 17.3013 108.438 17.232 108.422 17.2C108.406 17.168 108.36 17.1307 108.286 17.088L107.982 16.936L108.014 16.392L108.198 16.36C108.256 16.3493 108.464 16.3173 108.822 16.264C109.179 16.2053 109.478 16.1707 109.718 16.16C109.771 16.2613 109.811 16.376 109.838 16.504V18.6C109.528 18.7547 109.184 18.8773 108.806 18.968C108.427 19.0533 108.051 19.096 107.678 19.096Z" fill="url(#paint0_linear_324_221)" fill-opacity="0.8"/>
<path d="M143.893 5.47559L186.085 24.8193V274.713L96.585 300.455L7.08496 274.713V24.8232L50.1074 5.47559H143.893Z" stroke="url(#paint1_linear_324_221)"/>
<path d="M144.692 1.5L191.5 21.4902V274.356L96.5 300.444L1.5 274.356V21.4902L48.3076 1.5H144.692Z" stroke="url(#paint2_linear_324_221)" stroke-width="3"/>
<defs>
<linearGradient id="paint0_linear_324_221" x1="77.7234" y1="8.17391" x2="117.649" y2="9.10219" gradientUnits="userSpaceOnUse">
<stop stop-color="var(--logo-gradient-start)"/>
<stop offset="0.372489" stop-color="var(--logo-gradient-mid)"/>
<stop offset="1" stop-color="var(--logo-gradient-end)"/>
</linearGradient>
<linearGradient id="paint1_linear_324_221" x1="-6.63379" y1="-78.6766" x2="225.314" y2="-77.6187" gradientUnits="userSpaceOnUse">
<stop  stop-color="var(--logo-gradient-start)"/>
<stop offset="0.372489" stop-color="var(--logo-gradient-mid)"/>
<stop offset="1" stop-color="var(--logo-gradient-end)"/>
</linearGradient>
<linearGradient id="paint2_linear_324_221" x1="-14.1734" y1="-85.3478" x2="234.526" y2="-84.1558" gradientUnits="userSpaceOnUse">
<stop  stop-color="var(--logo-gradient-start)"/>
<stop offset="0.372489" stop-color="var(--logo-gradient-mid)"/>
<stop offset="1" stop-color="var(--logo-gradient-end)"/>
</linearGradient>
</defs>
</svg>
