<svg width="357" height="557" viewBox="0 0 357 557" fill="none" xmlns="http://www.w3.org/2000/svg">
<rect x="12.9482" y="138.328" width="332.953" height="394.695" rx="3" fill="url(#paint0_linear_328_361)" fill-opacity="0.8"/>
<mask id="mask0_328_361" style="mask-type:alpha" maskUnits="userSpaceOnUse" x="0" y="0" width="357" height="557">
<path d="M267.667 5.25488L355 39.1777V506.598L178.5 554.926L2 506.598V39.1777L89.332 5.25488L178.5 2.00098L267.667 5.25488Z" fill="var(--nar-text-tertiary)" stroke="url(#paint1_linear_328_361)" stroke-width="4"/>
</mask>
<g mask="url(#mask0_328_361)">
<path d="M0 37.8096L89.5769 3.26878L178.5 0L268.731 3.26878L357 37.8096V508.124L178.5 557L0 508.124V37.8096Z" fill="var(--nar-BG-last)"/>
<path d="M0 37.8096L89.5769 3.26878L178.5 0L268.731 3.26878L357 37.8096V508.124L178.5 557L0 508.124V37.8096Z" fill="var(--nar-purple-opacity5)"/>
</g>
<path d="M266.416 9.72266L344.633 43.6035V503.556L178.657 550.998L12.6802 503.556V43.6035L90.7417 9.72266H266.416Z" stroke="#909296"/>
<path d="M267.907 1.5L355.5 38.8008V506.979L178.5 555.444L1.5 506.979V38.8008L89.0928 1.5H267.907Z" stroke="url(#paint2_linear_328_361)" stroke-width="3"/>
<path d="M157.46 19.888L157.664 23.032C157.672 23.216 157.692 23.336 157.724 23.392C157.756 23.448 157.828 23.508 157.94 23.572L158.564 23.992L158.516 25H155.396L155.336 23.692L155.984 23.536L156.032 18.808C156.032 18.656 156.02 18.552 155.996 18.496C155.972 18.44 155.916 18.376 155.828 18.304L155.384 17.968L155.468 16.912H157.952L161.576 21.556L161.408 18.88C161.4 18.688 161.38 18.564 161.348 18.508C161.316 18.452 161.244 18.392 161.132 18.328L160.508 17.92L160.544 16.912H163.64L163.688 18.136L163.076 18.4L163.028 24.892L161.648 25.348L157.46 19.888ZM163.747 23.932L164.119 23.704L166.927 16.9L168.967 16.72L171.367 23.2C171.447 23.408 171.503 23.544 171.535 23.608C171.567 23.672 171.627 23.76 171.715 23.872L171.931 24.148L171.859 25H168.487L168.367 23.86L169.219 23.644L168.835 22.432L166.399 22.468L166.135 23.224C166.111 23.296 166.099 23.356 166.099 23.404C166.099 23.46 166.107 23.504 166.123 23.536C166.147 23.56 166.183 23.58 166.231 23.596L167.059 23.944L166.939 25H163.795L163.747 23.932ZM167.671 18.772L166.879 21.076L168.427 21.148L167.671 18.772ZM172.424 23.776L173.3 23.536V18.964C173.3 18.756 173.284 18.62 173.252 18.556C173.22 18.484 173.136 18.42 173 18.364L172.376 18.016L172.448 17.032C173.648 16.856 174.804 16.768 175.916 16.768C176.78 16.768 177.476 16.856 178.004 17.032C178.532 17.2 178.916 17.468 179.156 17.836C179.404 18.196 179.528 18.676 179.528 19.276C179.528 19.772 179.4 20.208 179.144 20.584C178.888 20.952 178.524 21.236 178.052 21.436L179.972 24.532L179.96 25H177.776L176 21.796L175.472 21.784V23.128C175.472 23.32 175.484 23.444 175.508 23.5C175.54 23.548 175.612 23.604 175.724 23.668L176.24 23.968L176.192 25H172.484L172.424 23.776ZM176.24 20.44C176.664 20.44 176.976 20.4 177.176 20.32C177.256 20.032 177.296 19.688 177.296 19.288C177.296 18.888 177.208 18.604 177.032 18.436C176.864 18.268 176.58 18.184 176.18 18.184C175.956 18.184 175.728 18.196 175.496 18.22V20.368C175.704 20.416 175.952 20.44 176.24 20.44ZM181.09 23.596L183.034 23.08L183.526 24.868L181.594 25.384L181.09 23.596ZM188.266 25.144C186.914 25.144 185.898 24.788 185.218 24.076C184.538 23.364 184.198 22.308 184.198 20.908C184.198 20.052 184.362 19.316 184.69 18.7C185.018 18.076 185.494 17.6 186.118 17.272C186.742 16.944 187.482 16.78 188.338 16.78C189.378 16.78 190.39 16.988 191.374 17.404C191.294 18.172 191.182 18.94 191.038 19.708L190.126 19.768L189.37 18.664C188.97 18.52 188.474 18.448 187.882 18.448C187.602 18.448 187.266 18.476 186.874 18.532C186.73 18.772 186.618 19.092 186.538 19.492C186.458 19.892 186.418 20.324 186.418 20.788C186.418 21.708 186.602 22.396 186.97 22.852C187.338 23.3 187.91 23.528 188.686 23.536C188.878 23.536 189.122 23.52 189.418 23.488V22.612C189.418 22.452 189.406 22.348 189.382 22.3C189.358 22.252 189.29 22.196 189.178 22.132L188.722 21.904L188.77 21.088L189.046 21.04C189.134 21.024 189.446 20.976 189.982 20.896C190.518 20.808 190.966 20.756 191.326 20.74C191.406 20.892 191.466 21.064 191.506 21.256V24.4C191.042 24.632 190.526 24.816 189.958 24.952C189.39 25.08 188.826 25.144 188.266 25.144ZM196.516 25.144C195.164 25.144 194.148 24.788 193.468 24.076C192.788 23.364 192.448 22.308 192.448 20.908C192.448 20.052 192.612 19.316 192.94 18.7C193.268 18.076 193.744 17.6 194.368 17.272C194.992 16.944 195.732 16.78 196.588 16.78C197.628 16.78 198.64 16.988 199.624 17.404C199.544 18.172 199.432 18.94 199.288 19.708L198.376 19.768L197.62 18.664C197.22 18.52 196.724 18.448 196.132 18.448C195.852 18.448 195.516 18.476 195.124 18.532C194.98 18.772 194.868 19.092 194.788 19.492C194.708 19.892 194.668 20.324 194.668 20.788C194.668 21.708 194.852 22.396 195.22 22.852C195.588 23.3 196.16 23.528 196.936 23.536C197.128 23.536 197.372 23.52 197.668 23.488V22.612C197.668 22.452 197.656 22.348 197.632 22.3C197.608 22.252 197.54 22.196 197.428 22.132L196.972 21.904L197.02 21.088L197.296 21.04C197.384 21.024 197.696 20.976 198.232 20.896C198.768 20.808 199.216 20.756 199.576 20.74C199.656 20.892 199.716 21.064 199.756 21.256V24.4C199.292 24.632 198.776 24.816 198.208 24.952C197.64 25.08 197.076 25.144 196.516 25.144Z" fill="#909296"/>
<defs>
<linearGradient id="paint0_linear_328_361" x1="-11.503" y1="26.7838" x2="417.533" y2="29.4982" gradientUnits="userSpaceOnUse">
<stop stop-color="var(--logo-gradient-start)"/>
<stop offset="0.372489" stop-color="var(--logo-gradient-mid)"/>
<stop offset="1" stop-color="var(--logo-gradient-end)"/>
</linearGradient>
<linearGradient id="paint1_linear_328_361" x1="-26.2172" y1="-157.413" x2="433.812" y2="-155.202" gradientUnits="userSpaceOnUse">
<stop stop-color="var(--logo-gradient-start)"/>
<stop offset="0.372489" stop-color="var(--logo-gradient-mid)"/>
<stop offset="1" stop-color="var(--logo-gradient-end)"/>
</linearGradient>
<linearGradient id="paint2_linear_328_361" x1="-26.2172" y1="-157.413" x2="433.812" y2="-155.202" gradientUnits="userSpaceOnUse">
<stop stop-color="var(--logo-gradient-start)"/>
<stop offset="0.372489" stop-color="var(--logo-gradient-mid)"/>
<stop offset="1" stop-color="var(--logo-gradient-end)"/>
</linearGradient>
</defs>
</svg>
