<svg width="50" height="50" viewBox="0 0 50 50" fill="none" xmlns="http://www.w3.org/2000/svg">
<path fill-rule="evenodd" clip-rule="evenodd" d="M49.3517 14.0032C49.3788 13.9968 49.4072 14 49.4323 14.0123C49.4573 14.0245 49.4773 14.0451 49.4889 14.0704C49.5006 14.0958 49.5031 14.1244 49.4962 14.1514C49.4892 14.1785 49.4731 14.2023 49.4507 14.2188L27.3523 30.6492L29.9869 35.8213C30.0001 35.8458 30.0045 35.8742 29.9993 35.9016C29.9941 35.9289 29.9797 35.9537 29.9584 35.9716C29.9371 35.9896 29.9103 35.9996 29.8825 36C29.8548 36.0004 29.8277 35.9912 29.8059 35.9739L25 32.4003L20.1929 35.9727C20.1688 35.9911 20.1386 35.9997 20.1084 35.9969L20.0662 35.9848C20.052 35.9776 20.0393 35.9676 20.0289 35.9555C20.0185 35.9434 20.0106 35.9293 20.0057 35.9141C20.0008 35.8989 19.9989 35.8829 20.0001 35.867C20.0014 35.851 20.0058 35.8355 20.0131 35.8213L22.6465 30.6492L0.549339 14.2188C0.526894 14.2023 0.510824 14.1785 0.503851 14.1514C0.496877 14.1244 0.499428 14.0958 0.511072 14.0704C0.522716 14.0451 0.542738 14.0245 0.567746 14.0123C0.592755 14 0.621214 13.9968 0.648305 14.0032L21.2864 18.8265C21.3034 18.8306 21.3193 18.8383 21.3331 18.8492C21.3469 18.8601 21.3581 18.8738 21.366 18.8895L25 26.027L28.634 18.8895C28.6447 18.8681 28.6615 18.8504 28.6823 18.8386L28.7148 18.8265L49.3517 14.0032Z" fill="var(--nar-text-secondary)"/>
</svg>
