<svg width="50" height="50" viewBox="0 0 50 50" fill="none" xmlns="http://www.w3.org/2000/svg">
<path fill-rule="evenodd" clip-rule="evenodd" d="M11.2204 8.27348C11.3944 8.27348 11.6409 9.63607 12.8778 17.4618C14.8019 29.6505 15.6444 33.9066 16.1403 33.9066C16.4143 33.9066 16.8899 32.0479 17.815 27.3776C18.6342 23.2459 19.1418 20.7856 19.484 19.3879L19.5637 19.0732C19.8175 18.0882 19.9726 17.7516 20.106 17.7516C20.3714 17.7516 20.7832 19.1933 21.4879 22.6868L21.6285 23.3893C21.9156 24.8441 22.2477 26.6136 22.6334 28.7314C23.834 35.338 24.6402 39.4682 25.0259 40.9377C25.5479 42.9793 25.7218 43.3467 26.0046 43.0189C26.1684 42.8286 26.5976 41.7455 27.0732 40.3347L27.1689 40.0493C27.7083 38.4144 28.2579 37.1075 28.4595 37.0021C28.6625 36.885 28.7625 37.0314 29.1656 37.9681C29.7978 39.4389 31.8046 46.5197 31.7118 46.9252C31.6843 47.0422 31.5842 47.1681 31.4928 47.1974C31.1158 47.3145 29.3396 47.6716 28.4508 47.7975C27.5344 47.9321 23.7238 48.058 23.0466 47.9716C22.9161 47.957 22.5797 47.9145 22.2172 47.8692L21.8547 47.8253C19.41 47.5457 16.7797 46.7715 14.9382 45.8055C13.1068 44.8469 11.9614 43.7536 11.3016 42.3412L11 41.6929L11.0087 25.3257C11.0188 16.3202 11.0551 8.80476 11.0812 8.61157C11.1189 8.42716 11.1827 8.27348 11.2204 8.27348ZM39.8391 2.1162C39.8942 2.2289 39.9406 8.72573 39.9783 21.3213L39.9986 30.8404L40 31.6527V34.7862C39.9928 39.7375 39.9362 40.8791 39.7477 41.4543L39.7245 41.5216L39.7129 41.5538L39.6738 41.6446L39.6593 41.6738L39.6013 41.7909L39.5868 41.8217L39.5534 41.8831L39.4664 42.0558C39.0111 42.975 37.8221 44.0522 37.5524 43.7726C37.5191 43.7477 37.4944 42.3778 37.4886 40.6215V36.3391L36.7346 35.8927C34.2449 34.4364 30.9187 33.6007 26.7369 33.387C25.7697 33.3402 25.5 33.2948 25.5 33.1924C25.5 32.8484 25.8291 30.6736 26.2018 28.3977L26.3338 27.5927C26.647 25.7179 26.966 23.9118 27.1356 23.1405C27.3966 21.9799 27.7127 21.0886 27.8896 21.033C28.1028 20.9598 28.2884 21.4603 28.8829 23.6601C29.5426 26.1013 29.7384 26.6663 29.9051 26.6663C30.2488 26.6663 30.6852 24.7549 31.5306 19.6031C32.5905 13.1721 32.9805 11.5095 33.3807 11.7612C33.5475 11.8636 33.8361 12.8647 34.6539 16.2163L34.825 16.9115C35.6225 20.1021 35.9081 20.7842 36.1778 20.2807C36.4939 19.6953 37.1899 16.1241 38.4166 8.80037C39.3374 3.31487 39.5041 2.39575 39.6433 2.12645C39.7361 1.9596 39.7448 1.9596 39.8391 2.1162Z" fill="var(--nar-text-secondary)"/>
</svg>
